<?xml version="1.0" encoding="UTF-8"?>
<svg id="Layer_1" data-name="Layer 1" xmlns="http://www.w3.org/2000/svg" xmlns:xlink="http://www.w3.org/1999/xlink" viewBox="0 0 144 144">
  <defs>
    <style>
      .cls-1, .cls-2, .cls-3, .cls-4 {
        stroke-width: 0px;
      }

      .cls-2 {
        fill: none;
      }

      .cls-3 {
        fill: #7624f0;
      }

      .cls-4 {
        fill: #fff;
      }

      .cls-5 {
        clip-path: url(#clippath);
      }
    </style>
    <clipPath id="clippath">
      <rect class="cls-2" y="0" width="144" height="144"/>
    </clipPath>
  </defs>
  <rect class="cls-4" width="144" height="144" rx="20.81" ry="20.81"/>
  <g class="cls-5">
    <g>
      <path class="cls-3" d="m44.17,26.45v103.96h86.59V26.45H44.17Z"/>
      <path class="cls-1" d="m61.31,70.86c-3.26-1.38-6.8-2.67-10.62-3.88-3.82-1.21-7.7-2.32-11.62-3.32-3.93-1-7.73-1.89-11.4-2.66-3.68-.77-7.02-1.41-10.03-1.91l2.07-10.03c3.05.38,6.46.94,10.24,1.69,3.78.75,7.71,1.63,11.78,2.63,4.07,1,8.06,2.13,11.97,3.38,3.91,1.25,7.51,2.57,10.81,3.95l-3.2,10.15Zm1.38-37.09c-2.47-1.29-5.26-2.51-8.4-3.63-3.13-1.13-6.41-2.14-9.84-3.04-3.43-.9-6.82-1.67-10.18-2.32-3.36-.65-6.51-1.12-9.43-1.41l2.26-9.77c3.22.25,6.57.68,10.06,1.28,3.49.61,6.97,1.35,10.43,2.22,3.47.88,6.8,1.88,9.99,3.01,3.2,1.13,6.11,2.36,8.74,3.7l-3.63,9.96Zm-8.27,17.86c-2.47-1.63-5.33-3.23-8.58-4.79s-6.61-3.04-10.06-4.42-6.72-2.55-9.81-3.51l4.57-8.77c5.01,1.38,10.04,3.09,15.07,5.14,5.03,2.05,9.51,4.39,13.44,7.02l-4.64,9.34Z"/>
      <path class="cls-1" d="m73.27,62.71l-.19-10.78c3.17.67,6.69,1.19,10.56,1.57,3.86.38,7.84.56,11.94.56,3.8,0,7.59-.17,11.37-.5,3.78-.33,7.39-.84,10.84-1.5,3.45-.67,6.57-1.5,9.37-2.51l.56,11.09c-4.01,1.46-8.7,2.54-14.07,3.23-5.37.69-10.85,1.03-16.45,1.03-4.3,0-8.51-.19-12.63-.56-4.11-.38-7.89-.92-11.31-1.63Zm6.96-28.95l-2.07-10.34c1.59-.58,3.51-1.1,5.76-1.53,2.26-.44,4.7-.81,7.33-1.13,2.63-.31,5.33-.55,8.08-.72,2.76-.17,5.43-.25,8.02-.25s5.25.09,7.61.28c2.36.19,4.31.49,5.86.91l-.63,10.59c-1.67-.42-3.57-.71-5.7-.88-2.13-.17-4.37-.25-6.7-.25-3.3,0-6.67.15-10.12.44-3.45.29-6.69.69-9.74,1.19-3.05.5-5.62,1.07-7.71,1.69Z"/>
      <path class="cls-1" d="m29.6,104.81c-1.42-.79-3.12-1.59-5.11-2.38-1.98-.79-3.98-1.5-5.98-2.13s-3.76-1.09-5.26-1.38l2.94-9.65c1.8.38,3.72.89,5.76,1.53,2.05.65,4.07,1.37,6.08,2.16,2.01.79,3.84,1.61,5.51,2.44l-3.95,9.4Zm37.41-3.51c-1.8,2.76-3.94,5.42-6.42,7.99-2.49,2.57-5.16,4.96-8.02,7.17-2.86,2.21-5.79,4.15-8.77,5.8-2.99,1.65-5.9,2.93-8.74,3.85-2.84.92-5.47,1.38-7.89,1.38-3.3,0-6.17-1.02-8.62-3.07-2.44-2.05-4.17-5.47-5.17-10.28l8.83-4.07c.58,2.51,1.4,4.3,2.44,5.39,1.04,1.09,2.42,1.63,4.14,1.63,1.09,0,2.58-.34,4.48-1.03,1.9-.69,4.02-1.7,6.36-3.04,2.34-1.34,4.74-2.99,7.21-4.95,2.46-1.96,4.85-4.22,7.14-6.77,2.3-2.55,4.34-5.35,6.14-8.4l6.89,8.4Zm-30.7-9.77c-1.84-1.71-4.21-3.4-7.11-5.08-2.9-1.67-5.92-3.2-9.05-4.57l3.45-9.15c2.21.79,4.44,1.77,6.67,2.91,2.23,1.15,4.33,2.35,6.3,3.6,1.96,1.25,3.57,2.44,4.82,3.57l-5.08,8.71Z"/>
      <path class="cls-1" d="m74.24,118.63l-1.57-9.02c1.17.08,2.36.16,3.57.22,1.21.06,2.48.09,3.82.09,3.22,0,6.44-.17,9.68-.5,3.24-.33,6.51-.81,9.81-1.44.08-1,.17-1.98.25-2.94-6.1-1.42-12.2-2.13-18.3-2.13-2.21,0-4.7.13-7.46.38l1.07-9.52c2.46-.25,4.91-.38,7.33-.38,3.01,0,6.02.17,9.02.5,3.01.33,5.91.84,8.71,1.5,0-2.01-.16-3.55-.47-4.64-.31-1.09-1.01-1.84-2.1-2.26-1.09-.42-2.82-.63-5.2-.63-1.88,0-3.94.16-6.17.47-2.24.31-4.52.71-6.86,1.19-2.34.48-4.6.99-6.77,1.54l-1.75-9.21c4.34-1.13,8.39-1.91,12.12-2.35,3.74-.44,7.01-.66,9.81-.66,3.47,0,6.31.25,8.52.75,2.21.5,3.95,1.39,5.2,2.66,1.25,1.27,2.12,3.06,2.6,5.36.48,2.3.72,5.22.72,8.77,0,2.76-.15,6.1-.44,10.03-.29,3.93-.88,8.65-1.75,14.16l-9.77-1.69c.08-.42.17-.84.25-1.25-2.88.5-5.82.89-8.8,1.16-2.99.27-5.73.41-8.24.41-2.8,0-5.08-.19-6.83-.56Z"/>
      <path class="cls-1" d="m130.76,87.66c-2.62.28-5.1.59-7.42.93-2.99.44-5.59.95-7.8,1.53l2.13,10.84c2.05-.5,4.51-.96,7.39-1.38,1.8-.26,3.71-.5,5.7-.72v-11.21Z"/>
    </g>
  </g>
</svg>