<?xml version="1.0" encoding="UTF-8"?>
<svg id="Layer_1" data-name="Layer 1" xmlns="http://www.w3.org/2000/svg" xmlns:xlink="http://www.w3.org/1999/xlink" viewBox="0 0 512 512">
  <defs>
    <style>
      .cls-1, .cls-2, .cls-3, .cls-4 {
        stroke-width: 0px;
      }

      .cls-2 {
        fill: none;
      }

      .cls-3 {
        fill: #7624f0;
      }

      .cls-4 {
        fill: #fff;
      }

      .cls-5 {
        clip-path: url(#clippath);
      }
    </style>
    <clipPath id="clippath">
      <rect class="cls-2" x="0" y="0" width="512" height="512"/>
    </clipPath>
  </defs>
  <rect class="cls-4" width="512" height="512" rx="73.99" ry="73.99"/>
  <g class="cls-5">
    <g>
      <path class="cls-3" d="m157.04,94.05v369.64h307.87V94.05H157.04Z"/>
      <path class="cls-1" d="m217.98,251.94c-11.59-4.9-24.17-9.51-37.76-13.81-13.59-4.31-27.37-8.24-41.33-11.81-13.96-3.57-27.48-6.72-40.55-9.47-13.07-2.75-24.95-5.01-35.65-6.79l7.35-35.65c10.84,1.34,22.98,3.34,36.43,6.01,13.44,2.67,27.4,5.79,41.88,9.36,14.48,3.56,28.66,7.57,42.55,12.03,13.89,4.46,26.7,9.13,38.43,14.04l-11.36,36.09Zm4.9-131.89c-8.77-4.6-18.71-8.91-29.85-12.92-11.14-4.01-22.8-7.61-34.98-10.81-12.18-3.19-24.25-5.94-36.2-8.24-11.96-2.3-23.14-3.97-33.53-5.01l8.02-34.75c11.44.89,23.35,2.42,35.76,4.57,12.4,2.15,24.76,4.79,37.09,7.91,12.33,3.12,24.17,6.68,35.53,10.69,11.36,4.01,21.72,8.39,31.08,13.14l-12.92,35.42Zm-29.41,63.49c-8.77-5.79-18.94-11.47-30.52-17.04-11.59-5.57-23.5-10.81-35.76-15.71-12.25-4.9-23.88-9.06-34.87-12.48l16.26-31.19c17.82,4.9,35.68,10.99,53.58,18.27,17.9,7.28,33.83,15.59,47.79,24.95l-16.49,33.19Z"/>
      <path class="cls-1" d="m260.5,222.97l-.67-38.32c11.29,2.38,23.8,4.23,37.54,5.57,13.74,1.34,27.88,2.01,42.44,2.01,13.51,0,26.99-.59,40.44-1.78,13.44-1.19,26.29-2.97,38.54-5.35,12.25-2.37,23.35-5.35,33.31-8.91l2.01,39.43c-14.26,5.2-30.93,9.02-50.02,11.47-19.09,2.45-38.58,3.68-58.48,3.68-15.3,0-30.26-.67-44.89-2.01-14.63-1.34-28.04-3.27-40.21-5.79Zm24.73-102.93l-7.35-36.76c5.64-2.08,12.48-3.9,20.5-5.46,8.02-1.56,16.71-2.9,26.07-4.01,9.36-1.11,18.94-1.97,28.74-2.56,9.8-.59,19.31-.89,28.52-.89s18.68.33,27.07,1c8.39.67,15.33,1.75,20.83,3.23l-2.23,37.65c-5.94-1.48-12.7-2.52-20.27-3.12-7.57-.59-15.52-.89-23.84-.89-11.73,0-23.73.52-35.98,1.56-12.25,1.04-23.8,2.45-34.64,4.23-10.84,1.78-19.98,3.79-27.4,6.01Z"/>
      <path class="cls-1" d="m105.24,372.65c-5.05-2.82-11.1-5.64-18.16-8.47-7.06-2.82-14.15-5.35-21.28-7.57s-13.37-3.86-18.71-4.9l10.47-34.31c6.38,1.34,13.22,3.16,20.5,5.46,7.28,2.31,14.48,4.87,21.61,7.69,7.13,2.82,13.66,5.72,19.61,8.69l-14.04,33.42Zm133-12.48c-6.39,9.8-14,19.27-22.84,28.41-8.84,9.13-18.35,17.64-28.52,25.51-10.17,7.87-20.57,14.74-31.19,20.61-10.62,5.86-20.98,10.43-31.08,13.7-10.1,3.27-19.46,4.9-28.07,4.9-11.73,0-21.94-3.64-30.63-10.92-8.69-7.27-14.82-19.46-18.38-36.54l31.41-14.48c2.08,8.91,4.97,15.3,8.69,19.16,3.71,3.86,8.61,5.79,14.7,5.79,3.86,0,9.17-1.23,15.93-3.68,6.76-2.45,14.29-6.05,22.61-10.81,8.32-4.75,16.86-10.62,25.62-17.6,8.76-6.98,17.23-15,25.4-24.06,8.17-9.06,15.45-19.01,21.83-29.85l24.51,29.85Zm-109.17-34.75c-6.54-6.09-14.97-12.1-25.29-18.05-10.32-5.94-21.05-11.36-32.19-16.26l12.25-32.53c7.87,2.82,15.78,6.28,23.73,10.36,7.94,4.09,15.41,8.35,22.39,12.81,6.98,4.46,12.7,8.69,17.16,12.7l-18.05,30.97Z"/>
      <path class="cls-1" d="m263.97,421.8l-5.57-32.08c4.16.3,8.39.56,12.7.78,4.31.22,8.84.33,13.59.33,11.43,0,22.91-.59,34.42-1.78,11.51-1.19,23.13-2.9,34.87-5.12.3-3.57.59-7.05.89-10.47-21.69-5.05-43.37-7.58-65.05-7.58-7.87,0-16.71.45-26.51,1.34l3.79-33.86c8.76-.89,17.45-1.34,26.07-1.34,10.69,0,21.39.6,32.08,1.78,10.69,1.19,21.02,2.97,30.97,5.35,0-7.13-.56-12.62-1.67-16.49-1.11-3.86-3.6-6.53-7.46-8.02-3.86-1.48-10.03-2.23-18.49-2.23-6.68,0-14,.56-21.94,1.67-7.95,1.11-16.08,2.53-24.39,4.23-8.32,1.71-16.34,3.53-24.06,5.46l-6.24-32.75c15.45-4.01,29.82-6.79,43.11-8.35,13.29-1.56,24.91-2.34,34.87-2.34,12.33,0,22.42.89,30.3,2.67,7.87,1.78,14.03,4.94,18.49,9.47,4.46,4.53,7.54,10.88,9.25,19.05,1.71,8.17,2.56,18.57,2.56,31.19,0,9.8-.52,21.69-1.56,35.65-1.04,13.96-3.12,30.74-6.24,50.35l-34.75-6.02c.3-1.49.59-2.97.89-4.46-10.25,1.78-20.68,3.15-31.3,4.12-10.62.96-20.39,1.45-29.3,1.45-9.95,0-18.05-.67-24.28-2.01Z"/>
      <path class="cls-1" d="m464.91,311.67c-9.31.99-18.12,2.09-26.4,3.3-10.62,1.56-19.87,3.38-27.74,5.46l7.57,38.54c7.28-1.78,16.04-3.42,26.29-4.9,6.41-.93,13.19-1.78,20.27-2.56v-39.84Z"/>
    </g>
  </g>
</svg>