<?xml version="1.0" encoding="UTF-8"?>
<svg id="Layer_1" data-name="Layer 1" xmlns="http://www.w3.org/2000/svg" xmlns:xlink="http://www.w3.org/1999/xlink" viewBox="0 0 192 192">
  <defs>
    <style>
      .cls-1, .cls-2, .cls-3, .cls-4 {
        stroke-width: 0px;
      }

      .cls-2 {
        fill: none;
      }

      .cls-3 {
        fill: #7624f0;
      }

      .cls-4 {
        fill: #fff;
      }

      .cls-5 {
        clip-path: url(#clippath);
      }
    </style>
    <clipPath id="clippath">
      <rect class="cls-2" y="0" width="192" height="192"/>
    </clipPath>
  </defs>
  <rect class="cls-4" width="192" height="192" rx="27.75" ry="27.75"/>
  <g class="cls-5">
    <g>
      <path class="cls-3" d="m58.89,35.27v138.62h115.45V35.27H58.89Z"/>
      <path class="cls-1" d="m81.74,94.48c-4.34-1.84-9.06-3.57-14.16-5.18-5.1-1.61-10.26-3.09-15.5-4.43-5.24-1.34-10.3-2.52-15.21-3.55-4.9-1.03-9.36-1.88-13.37-2.55l2.76-13.37c4.07.5,8.62,1.25,13.66,2.26,5.04,1,10.28,2.17,15.71,3.51,5.43,1.34,10.75,2.84,15.96,4.51,5.21,1.67,10.01,3.43,14.41,5.26l-4.26,13.53Zm1.84-49.46c-3.29-1.73-7.02-3.34-11.2-4.85-4.18-1.5-8.55-2.85-13.12-4.05-4.57-1.2-9.09-2.23-13.58-3.09-4.48-.86-8.68-1.49-12.57-1.88l3.01-13.03c4.29.33,8.76.91,13.41,1.71,4.65.81,9.29,1.8,13.91,2.97,4.62,1.17,9.06,2.51,13.33,4.01,4.26,1.5,8.15,3.15,11.65,4.93l-4.85,13.28Zm-11.03,23.81c-3.29-2.17-7.1-4.3-11.45-6.39s-8.81-4.05-13.41-5.89c-4.59-1.84-8.95-3.4-13.07-4.68l6.1-11.7c6.68,1.84,13.38,4.12,20.09,6.85,6.71,2.73,12.68,5.85,17.92,9.36l-6.18,12.45Z"/>
      <path class="cls-1" d="m97.69,83.62l-.25-14.37c4.23.89,8.92,1.59,14.08,2.09,5.15.5,10.46.75,15.92.75,5.07,0,10.12-.22,15.16-.67,5.04-.45,9.86-1.11,14.45-2.01,4.59-.89,8.76-2.01,12.49-3.34l.75,14.79c-5.35,1.95-11.6,3.38-18.76,4.3-7.16.92-14.47,1.38-21.93,1.38-5.74,0-11.35-.25-16.83-.75-5.49-.5-10.51-1.22-15.08-2.17Zm9.27-38.6l-2.76-13.78c2.12-.78,4.68-1.46,7.69-2.05,3.01-.58,6.27-1.09,9.77-1.5,3.51-.42,7.1-.74,10.78-.96,3.68-.22,7.24-.33,10.69-.33s7,.13,10.15.38c3.15.25,5.75.66,7.81,1.21l-.84,14.12c-2.23-.56-4.76-.95-7.6-1.17-2.84-.22-5.82-.33-8.94-.33-4.4,0-8.9.2-13.49.58-4.59.39-8.93.92-12.99,1.59-4.07.67-7.49,1.42-10.28,2.26Z"/>
      <path class="cls-1" d="m39.46,139.74c-1.89-1.06-4.16-2.12-6.81-3.17-2.65-1.06-5.31-2.01-7.98-2.84s-5.01-1.45-7.02-1.84l3.93-12.87c2.39.5,4.96,1.18,7.69,2.05,2.73.86,5.43,1.83,8.1,2.88,2.67,1.06,5.12,2.14,7.35,3.26l-5.26,12.53Zm49.88-4.68c-2.4,3.68-5.25,7.23-8.56,10.65-3.31,3.43-6.88,6.61-10.69,9.57-3.82,2.95-7.71,5.53-11.7,7.73-3.98,2.2-7.87,3.91-11.65,5.14-3.79,1.22-7.3,1.84-10.53,1.84-4.4,0-8.23-1.37-11.49-4.09-3.26-2.73-5.56-7.3-6.89-13.7l11.78-5.43c.78,3.34,1.87,5.74,3.26,7.18,1.39,1.45,3.23,2.17,5.51,2.17,1.45,0,3.44-.46,5.97-1.38,2.53-.92,5.36-2.27,8.48-4.05,3.12-1.78,6.32-3.98,9.61-6.6,3.29-2.62,6.46-5.62,9.52-9.02,3.06-3.4,5.79-7.13,8.19-11.2l9.19,11.2Zm-40.94-13.03c-2.45-2.28-5.61-4.54-9.48-6.77-3.87-2.23-7.89-4.26-12.07-6.1l4.59-12.2c2.95,1.06,5.92,2.35,8.9,3.88,2.98,1.53,5.78,3.13,8.4,4.8,2.62,1.67,4.76,3.26,6.43,4.76l-6.77,11.61Z"/>
      <path class="cls-1" d="m98.99,158.18l-2.09-12.03c1.56.11,3.15.21,4.76.29,1.61.08,3.31.13,5.1.13,4.29,0,8.59-.22,12.91-.67,4.32-.45,8.67-1.09,13.07-1.92.11-1.34.22-2.64.33-3.93-8.13-1.89-16.26-2.84-24.4-2.84-2.95,0-6.27.17-9.94.5l1.42-12.7c3.29-.33,6.54-.5,9.77-.5,4.01,0,8.02.22,12.03.67,4.01.45,7.88,1.11,11.61,2.01,0-2.67-.21-4.73-.63-6.18-.42-1.45-1.35-2.45-2.8-3.01-1.45-.56-3.76-.84-6.93-.84-2.51,0-5.25.21-8.23.63-2.98.42-6.03.95-9.15,1.59-3.12.64-6.13,1.32-9.02,2.05l-2.34-12.28c5.79-1.5,11.18-2.55,16.17-3.13,4.98-.58,9.34-.88,13.07-.88,4.62,0,8.41.33,11.36,1,2.95.67,5.26,1.85,6.93,3.55,1.67,1.7,2.83,4.08,3.47,7.14.64,3.06.96,6.96.96,11.7,0,3.68-.2,8.13-.58,13.37-.39,5.24-1.17,11.53-2.34,18.88l-13.03-2.26c.11-.56.22-1.12.33-1.67-3.84.67-7.76,1.18-11.74,1.55-3.98.36-7.64.54-10.99.54-3.73,0-6.77-.25-9.11-.75Z"/>
      <path class="cls-1" d="m174.34,116.88c-3.49.37-6.8.78-9.9,1.24-3.98.58-7.45,1.27-10.4,2.05l2.84,14.45c2.73-.67,6.02-1.28,9.86-1.84,2.4-.35,4.95-.67,7.6-.96v-14.94Z"/>
    </g>
  </g>
</svg>