<?xml version="1.0" encoding="UTF-8"?>
<svg id="Layer_1" data-name="Layer 1" xmlns="http://www.w3.org/2000/svg" xmlns:xlink="http://www.w3.org/1999/xlink" viewBox="0 0 72 72">
  <defs>
    <style>
      .cls-1, .cls-2, .cls-3, .cls-4 {
        stroke-width: 0px;
      }

      .cls-2 {
        fill: none;
      }

      .cls-3 {
        fill: #7624f0;
      }

      .cls-4 {
        fill: #fff;
      }

      .cls-5 {
        clip-path: url(#clippath);
      }
    </style>
    <clipPath id="clippath">
      <rect class="cls-2" width="72" height="72"/>
    </clipPath>
  </defs>
  <rect class="cls-4" width="72" height="72" rx="10.4" ry="10.4"/>
  <g class="cls-5">
    <g>
      <path class="cls-3" d="m22.08,13.23v51.98h43.29V13.23H22.08Z"/>
      <path class="cls-1" d="m30.65,35.43c-1.63-.69-3.4-1.34-5.31-1.94-1.91-.61-3.85-1.16-5.81-1.66-1.96-.5-3.86-.94-5.7-1.33-1.84-.39-3.51-.7-5.01-.96l1.03-5.01c1.52.19,3.23.47,5.12.85,1.89.38,3.85.81,5.89,1.32,2.04.5,4.03,1.07,5.98,1.69,1.95.63,3.75,1.28,5.4,1.97l-1.6,5.08Zm.69-18.55c-1.23-.65-2.63-1.25-4.2-1.82-1.57-.56-3.21-1.07-4.92-1.52-1.71-.45-3.41-.84-5.09-1.16-1.68-.32-3.25-.56-4.72-.7l1.13-4.89c1.61.13,3.28.34,5.03.64,1.74.3,3.48.67,5.22,1.11,1.73.44,3.4.94,5,1.5,1.6.56,3.05,1.18,4.37,1.85l-1.82,4.98Zm-4.14,8.93c-1.23-.81-2.66-1.61-4.29-2.4s-3.31-1.52-5.03-2.21-3.36-1.27-4.9-1.75l2.29-4.39c2.51.69,5.02,1.55,7.53,2.57,2.52,1.02,4.76,2.19,6.72,3.51l-2.32,4.67Z"/>
      <path class="cls-1" d="m36.63,31.36l-.09-5.39c1.59.33,3.35.6,5.28.78,1.93.19,3.92.28,5.97.28,1.9,0,3.8-.08,5.69-.25,1.89-.17,3.7-.42,5.42-.75,1.72-.33,3.28-.75,4.68-1.25l.28,5.55c-2.01.73-4.35,1.27-7.03,1.61-2.68.34-5.43.52-8.22.52-2.15,0-4.26-.09-6.31-.28-2.06-.19-3.94-.46-5.65-.81Zm3.48-14.47l-1.03-5.17c.79-.29,1.75-.55,2.88-.77,1.13-.22,2.35-.41,3.67-.56,1.32-.16,2.66-.28,4.04-.36,1.38-.08,2.71-.13,4.01-.13s2.63.05,3.81.14c1.18.09,2.16.25,2.93.45l-.31,5.29c-.84-.21-1.79-.35-2.85-.44-1.07-.08-2.18-.13-3.35-.13-1.65,0-3.34.07-5.06.22-1.72.15-3.35.34-4.87.6-1.52.25-2.81.53-3.85.85Z"/>
      <path class="cls-1" d="m14.8,52.4c-.71-.4-1.56-.79-2.55-1.19-.99-.4-1.99-.75-2.99-1.07s-1.88-.54-2.63-.69l1.47-4.82c.9.19,1.86.44,2.88.77,1.02.32,2.04.68,3.04,1.08,1,.4,1.92.8,2.76,1.22l-1.97,4.7Zm18.7-1.75c-.9,1.38-1.97,2.71-3.21,3.99-1.24,1.28-2.58,2.48-4.01,3.59-1.43,1.11-2.89,2.07-4.39,2.9-1.49.82-2.95,1.47-4.37,1.93-1.42.46-2.74.69-3.95.69-1.65,0-3.09-.51-4.31-1.54-1.22-1.02-2.08-2.74-2.58-5.14l4.42-2.04c.29,1.25.7,2.15,1.22,2.69.52.54,1.21.81,2.07.81.54,0,1.29-.17,2.24-.52.95-.34,2.01-.85,3.18-1.52,1.17-.67,2.37-1.49,3.6-2.48,1.23-.98,2.42-2.11,3.57-3.38,1.15-1.27,2.17-2.67,3.07-4.2l3.45,4.2Zm-15.35-4.89c-.92-.86-2.1-1.7-3.56-2.54-1.45-.84-2.96-1.6-4.53-2.29l1.72-4.57c1.11.4,2.22.88,3.34,1.46,1.12.57,2.17,1.17,3.15,1.8.98.63,1.79,1.22,2.41,1.79l-2.54,4.35Z"/>
      <path class="cls-1" d="m37.12,59.32l-.78-4.51c.58.04,1.18.08,1.79.11.61.03,1.24.05,1.91.05,1.61,0,3.22-.08,4.84-.25,1.62-.17,3.25-.41,4.9-.72.04-.5.08-.99.13-1.47-3.05-.71-6.1-1.07-9.15-1.07-1.11,0-2.35.06-3.73.19l.53-4.76c1.23-.13,2.45-.19,3.67-.19,1.5,0,3.01.08,4.51.25,1.5.17,2.96.42,4.35.75,0-1-.08-1.78-.23-2.32-.16-.54-.51-.92-1.05-1.13-.54-.21-1.41-.31-2.6-.31-.94,0-1.97.08-3.09.23-1.12.16-2.26.36-3.43.6-1.17.24-2.3.5-3.38.77l-.88-4.61c2.17-.56,4.19-.96,6.06-1.17,1.87-.22,3.5-.33,4.9-.33,1.73,0,3.15.13,4.26.38,1.11.25,1.97.69,2.6,1.33.63.64,1.06,1.53,1.3,2.68.24,1.15.36,2.61.36,4.39,0,1.38-.07,3.05-.22,5.01-.15,1.96-.44,4.32-.88,7.08l-4.89-.85c.04-.21.08-.42.13-.63-1.44.25-2.91.44-4.4.58-1.49.14-2.87.2-4.12.2-1.4,0-2.54-.09-3.41-.28Z"/>
      <path class="cls-1" d="m65.38,43.83c-1.31.14-2.55.29-3.71.46-1.49.22-2.79.48-3.9.77l1.07,5.42c1.02-.25,2.26-.48,3.7-.69.9-.13,1.86-.25,2.85-.36v-5.6Z"/>
    </g>
  </g>
</svg>