<?xml version="1.0" encoding="UTF-8"?>
<svg id="Layer_1" data-name="Layer 1" xmlns="http://www.w3.org/2000/svg" xmlns:xlink="http://www.w3.org/1999/xlink" viewBox="0 0 48 48">
  <defs>
    <style>
      .cls-1, .cls-2, .cls-3, .cls-4 {
        stroke-width: 0px;
      }

      .cls-2 {
        fill: none;
      }

      .cls-3 {
        fill: #7624f0;
      }

      .cls-4 {
        fill: #fff;
      }

      .cls-5 {
        clip-path: url(#clippath);
      }
    </style>
    <clipPath id="clippath">
      <rect class="cls-2" width="48" height="48"/>
    </clipPath>
  </defs>
  <rect class="cls-4" x="0" width="48" height="48" rx="6.94" ry="6.94"/>
  <g class="cls-5">
    <g>
      <path class="cls-3" d="m14.72,8.82v34.65h28.86V8.82H14.72Z"/>
      <path class="cls-1" d="m20.44,23.62c-1.09-.46-2.27-.89-3.54-1.29-1.27-.4-2.57-.77-3.87-1.11-1.31-.33-2.58-.63-3.8-.89-1.23-.26-2.34-.47-3.34-.64l.69-3.34c1.02.13,2.15.31,3.41.56,1.26.25,2.57.54,3.93.88,1.36.33,2.69.71,3.99,1.13,1.3.42,2.5.86,3.6,1.32l-1.07,3.38Zm.46-12.36c-.82-.43-1.75-.84-2.8-1.21-1.04-.38-2.14-.71-3.28-1.01-1.14-.3-2.27-.56-3.39-.77-1.12-.22-2.17-.37-3.14-.47l.75-3.26c1.07.08,2.19.23,3.35.43,1.16.2,2.32.45,3.48.74,1.16.29,2.27.63,3.33,1,1.07.38,2.04.79,2.91,1.23l-1.21,3.32Zm-2.76,5.95c-.82-.54-1.78-1.08-2.86-1.6s-2.2-1.01-3.35-1.47-2.24-.85-3.27-1.17l1.52-2.92c1.67.46,3.35,1.03,5.02,1.71,1.68.68,3.17,1.46,4.48,2.34l-1.55,3.11Z"/>
      <path class="cls-1" d="m24.42,20.9l-.06-3.59c1.06.22,2.23.4,3.52.52,1.29.13,2.61.19,3.98.19,1.27,0,2.53-.06,3.79-.17,1.26-.11,2.46-.28,3.61-.5,1.15-.22,2.19-.5,3.12-.84l.19,3.7c-1.34.49-2.9.85-4.69,1.08-1.79.23-3.62.34-5.48.34-1.43,0-2.84-.06-4.21-.19-1.37-.13-2.63-.31-3.77-.54Zm2.32-9.65l-.69-3.45c.53-.19,1.17-.37,1.92-.51.75-.15,1.57-.27,2.44-.38.88-.1,1.78-.18,2.69-.24.92-.06,1.81-.08,2.67-.08s1.75.03,2.54.09c.79.06,1.44.16,1.95.3l-.21,3.53c-.56-.14-1.19-.24-1.9-.29-.71-.06-1.46-.08-2.23-.08-1.1,0-2.22.05-3.37.15-1.15.1-2.23.23-3.25.4-1.02.17-1.87.36-2.57.56Z"/>
      <path class="cls-1" d="m9.87,34.94c-.47-.26-1.04-.53-1.7-.79-.66-.26-1.33-.5-1.99-.71s-1.25-.36-1.75-.46l.98-3.22c.6.13,1.24.3,1.92.51.68.22,1.36.46,2.03.72.67.26,1.28.54,1.84.81l-1.32,3.13Zm12.47-1.17c-.6.92-1.31,1.81-2.14,2.66-.83.86-1.72,1.65-2.67,2.39-.95.74-1.93,1.38-2.92,1.93-1,.55-1.97.98-2.91,1.28-.95.31-1.82.46-2.63.46-1.1,0-2.06-.34-2.87-1.02-.81-.68-1.39-1.82-1.72-3.43l2.94-1.36c.19.84.47,1.43.81,1.8.35.36.81.54,1.38.54.36,0,.86-.11,1.49-.34.63-.23,1.34-.57,2.12-1.01.78-.45,1.58-1,2.4-1.65.82-.65,1.62-1.41,2.38-2.26.77-.85,1.45-1.78,2.05-2.8l2.3,2.8Zm-10.23-3.26c-.61-.57-1.4-1.13-2.37-1.69-.97-.56-1.97-1.07-3.02-1.52l1.15-3.05c.74.26,1.48.59,2.22.97.74.38,1.44.78,2.1,1.2.65.42,1.19.81,1.61,1.19l-1.69,2.9Z"/>
      <path class="cls-1" d="m24.75,39.54l-.52-3.01c.39.03.79.05,1.19.07.4.02.83.03,1.27.03,1.07,0,2.15-.06,3.23-.17,1.08-.11,2.17-.27,3.27-.48.03-.33.06-.66.08-.98-2.03-.47-4.07-.71-6.1-.71-.74,0-1.57.04-2.49.13l.36-3.17c.82-.08,1.64-.13,2.44-.13,1,0,2.01.06,3.01.17,1,.11,1.97.28,2.9.5,0-.67-.05-1.18-.16-1.55-.1-.36-.34-.61-.7-.75-.36-.14-.94-.21-1.73-.21-.63,0-1.31.05-2.06.16-.75.1-1.51.24-2.29.4-.78.16-1.53.33-2.26.51l-.58-3.07c1.45-.38,2.8-.64,4.04-.78,1.25-.15,2.34-.22,3.27-.22,1.16,0,2.1.08,2.84.25.74.17,1.32.46,1.73.89.42.42.71,1.02.87,1.79.16.77.24,1.74.24,2.92,0,.92-.05,2.03-.15,3.34-.1,1.31-.29,2.88-.58,4.72l-3.26-.56c.03-.14.06-.28.08-.42-.96.17-1.94.3-2.93.39-1,.09-1.91.14-2.75.14-.93,0-1.69-.06-2.28-.19Z"/>
      <path class="cls-1" d="m43.59,29.22c-.87.09-1.7.2-2.47.31-1,.15-1.86.32-2.6.51l.71,3.61c.68-.17,1.5-.32,2.46-.46.6-.09,1.24-.17,1.9-.24v-3.74Z"/>
    </g>
  </g>
</svg>