<?xml version="1.0" encoding="UTF-8"?>
<svg id="Layer_1" data-name="Layer 1" xmlns="http://www.w3.org/2000/svg" viewBox="0 0 2024.49 271.63">
  <defs>
    <style>
      .cls-1, .cls-2 {
        stroke-width: 0px;
      }

      .cls-2 {
        fill: #7624f0;
      }
    </style>
  </defs>
  <g>
    <path class="cls-2" d="m71.9,29.91v241.72h201.32V29.91H71.9Z"/>
    <path class="cls-1" d="m111.75,133.16c-7.58-3.21-15.81-6.22-24.69-9.03-8.89-2.82-17.9-5.39-27.03-7.72-9.13-2.33-17.97-4.39-26.51-6.19-8.55-1.8-16.32-3.28-23.31-4.44l4.81-23.31c7.09.87,15.03,2.19,23.82,3.93,8.79,1.75,17.92,3.79,27.39,6.12,9.47,2.33,18.74,4.95,27.83,7.87,9.08,2.91,17.46,5.97,25.13,9.18l-7.43,23.6Zm3.21-86.25c-5.73-3.01-12.24-5.83-19.52-8.45-7.28-2.62-14.91-4.98-22.87-7.07-7.97-2.09-15.86-3.88-23.67-5.39-7.82-1.5-15.13-2.6-21.93-3.28L32.2,0c7.48.58,15.27,1.58,23.38,2.99,8.11,1.41,16.19,3.13,24.26,5.17,8.06,2.04,15.81,4.37,23.24,6.99,7.43,2.62,14.2,5.49,20.32,8.6l-8.45,23.16Zm-19.23,41.52c-5.73-3.79-12.38-7.5-19.96-11.14s-15.37-7.07-23.38-10.27c-8.01-3.21-15.61-5.92-22.8-8.16l10.64-20.4c11.65,3.21,23.33,7.19,35.04,11.95,11.7,4.76,22.12,10.2,31.25,16.32l-10.78,21.71Z"/>
    <path class="cls-1" d="m139.56,114.22l-.44-25.06c7.38,1.55,15.56,2.77,24.55,3.64,8.98.87,18.23,1.31,27.75,1.31,8.84,0,17.65-.39,26.44-1.17,8.79-.78,17.19-1.94,25.2-3.5,8.01-1.55,15.27-3.5,21.78-5.83l1.31,25.79c-9.32,3.4-20.23,5.9-32.71,7.5-12.48,1.6-25.23,2.4-38.24,2.4-10,0-19.79-.44-29.36-1.31-9.57-.87-18.33-2.14-26.3-3.79Zm16.17-67.31l-4.81-24.04c3.69-1.36,8.16-2.55,13.4-3.57,5.24-1.02,10.93-1.89,17.05-2.62,6.12-.73,12.38-1.29,18.79-1.68,6.41-.39,12.62-.58,18.65-.58s12.21.22,17.7.66c5.49.44,10.03,1.14,13.62,2.11l-1.46,24.62c-3.89-.97-8.3-1.65-13.26-2.04-4.95-.39-10.15-.58-15.59-.58-7.67,0-15.52.34-23.53,1.02-8.01.68-15.57,1.6-22.65,2.77-7.09,1.17-13.06,2.48-17.92,3.93Z"/>
    <path class="cls-1" d="m38.02,212.1c-3.3-1.84-7.26-3.69-11.87-5.54-4.61-1.84-9.25-3.5-13.91-4.95S3.5,199.08,0,198.4l6.85-22.44c4.17.87,8.64,2.06,13.4,3.57,4.76,1.51,9.47,3.18,14.13,5.03,4.66,1.85,8.94,3.74,12.82,5.68l-9.18,21.85Zm86.98-8.16c-4.18,6.41-9.16,12.6-14.93,18.58-5.78,5.97-12,11.53-18.65,16.68-6.65,5.15-13.45,9.64-20.4,13.48-6.95,3.83-13.72,6.82-20.32,8.96-6.61,2.14-12.72,3.21-18.36,3.21-7.67,0-14.35-2.38-20.03-7.14-5.68-4.76-9.69-12.72-12.02-23.89l20.54-9.47c1.36,5.83,3.25,10,5.68,12.53,2.43,2.53,5.63,3.79,9.62,3.79,2.52,0,6-.8,10.42-2.4,4.42-1.6,9.35-3.96,14.79-7.07,5.44-3.11,11.02-6.94,16.75-11.51,5.73-4.56,11.27-9.81,16.61-15.73,5.34-5.92,10.1-12.43,14.28-19.52l16.03,19.52Zm-71.39-22.73c-4.28-3.98-9.79-7.91-16.54-11.8-6.75-3.88-13.77-7.43-21.05-10.64l8.01-21.27c5.15,1.85,10.32,4.1,15.52,6.77,5.19,2.67,10.08,5.46,14.64,8.38,4.56,2.91,8.3,5.68,11.22,8.3l-11.8,20.25Z"/>
    <path class="cls-1" d="m141.82,244.24l-3.64-20.98c2.72.2,5.49.36,8.3.51,2.82.15,5.78.22,8.89.22,7.48,0,14.98-.39,22.51-1.17,7.53-.78,15.13-1.89,22.8-3.35.19-2.33.39-4.61.58-6.85-14.18-3.3-28.36-4.95-42.54-4.95-5.15,0-10.93.29-17.34.87l2.48-22.14c5.73-.58,11.41-.87,17.05-.87,6.99,0,13.99.39,20.98,1.17,6.99.78,13.74,1.94,20.25,3.5,0-4.66-.36-8.25-1.09-10.78-.73-2.52-2.36-4.27-4.88-5.24-2.53-.97-6.56-1.46-12.09-1.46-4.37,0-9.16.36-14.35,1.09-5.2.73-10.51,1.65-15.95,2.77-5.44,1.12-10.69,2.31-15.73,3.57l-4.08-21.42c10.1-2.62,19.5-4.44,28.19-5.46,8.69-1.02,16.29-1.53,22.8-1.53,8.06,0,14.66.58,19.81,1.75,5.15,1.17,9.18,3.23,12.09,6.19,2.91,2.96,4.93,7.12,6.05,12.46,1.12,5.34,1.68,12.14,1.68,20.4,0,6.41-.34,14.18-1.02,23.31-.68,9.13-2.04,20.1-4.08,32.93l-22.73-3.93c.19-.97.39-1.94.58-2.91-6.7,1.17-13.53,2.06-20.47,2.7-6.95.63-13.33.95-19.16.95-6.51,0-11.8-.44-15.88-1.31Z"/>
    <path class="cls-1" d="m273.22,172.22c-6.09.65-11.85,1.37-17.26,2.16-6.95,1.02-12.99,2.21-18.14,3.57l4.95,25.2c4.76-1.17,10.49-2.23,17.19-3.21,4.19-.61,8.63-1.16,13.26-1.67v-26.05Z"/>
  </g>
  <g>
    <g>
      <path class="cls-1" d="m337.05,229.34c-.36-11.77-.53-23.07-.53-33.89,0-19.5.59-37.16,1.78-52.98,1.19-15.81,2.91-29.25,5.17-40.31,1.07-5.11,2.59-10.05,4.55-14.81,1.96-4.75,4.75-8.65,8.38-11.68,3.63-3.03,8.41-4.55,14.36-4.55s10.76,1.52,14.81,4.55c4.04,3.03,7.34,6.69,9.9,10.97,2.56,4.28,4.43,8.38,5.62,12.31,3.09,9.28,5.71,18.55,7.85,27.83,2.14,9.28,4.04,18.14,5.71,26.58,1.19-6.18,2.56-12.69,4.1-19.53,1.54-6.84,3.09-13.32,4.64-19.44,1.54-6.12,2.97-11.21,4.28-15.25,6.07-18.67,15.4-28,28-28,7.02,0,12.96,2.53,17.84,7.58,4.88,5.06,8.44,12.34,10.7,21.85,1.07,4.28,2.17,10.52,3.3,18.73,1.13,8.2,2.2,17.93,3.21,29.16,1.01,11.24,1.9,23.63,2.68,37.19.77,13.56,1.4,27.95,1.87,43.17l-31.39-.71c0-6.31-.15-13.61-.45-21.94-.3-8.32-.71-16.97-1.25-25.95-.53-8.98-1.13-17.75-1.78-26.31-.65-8.56-1.31-16.29-1.96-23.19-.65-6.9-1.28-12.4-1.87-16.5-.6-4.1-1.13-6.15-1.61-6.15-.12,0-.74,2.11-1.87,6.33-1.13,4.22-2.5,9.84-4.1,16.86-1.61,7.02-3.36,14.75-5.26,23.19-1.9,8.44-3.78,16.92-5.62,25.42-1.85,8.5-3.48,16.35-4.91,23.55-1.43,7.2-2.56,13.05-3.39,17.57l-28,.71c-1.43-6.66-3.12-14-5.08-22.03-1.96-8.03-3.99-16.23-6.06-24.62-2.08-8.38-4.13-16.47-6.15-24.26-2.02-7.79-3.9-14.77-5.62-20.96-1.73-6.18-3.12-11.09-4.19-14.72-1.07-3.63-1.73-5.44-1.96-5.44-.48,0-.98,2.59-1.52,7.76-.54,5.17-1.04,12.16-1.52,20.96-.48,8.8-.86,18.73-1.16,29.79-.3,11.06-.45,22.48-.45,34.25,0,5.59.03,10.7.09,15.34.06,4.64.15,8.44.27,11.42l-31.39.18Z"/>
      <path class="cls-1" d="m510.96,228.81c-.36-7.37-.6-15.25-.71-23.63-.12-8.38-.18-16.8-.18-25.24,0-11.06.12-21.82.36-32.29.24-10.46.53-19.98.89-28.54l30.68-.18c-.48,5.47-.77,12.22-.89,20.25-.12,8.03-.18,16.44-.18,25.24s.06,17.24.18,25.69c.12,8.44.27,16.08.45,22.92.18,6.84.32,12.1.45,15.79h-31.04Zm.71-127.71c0-1.07-.03-2.17-.09-3.3-.06-1.13-.09-2.41-.09-3.84,0-3.8.12-7.85.36-12.13.24-4.28.47-7.91.71-10.88l31.75.53c-.36,4.04-.74,8.62-1.16,13.73-.42,5.11-.68,10.41-.8,15.87h-30.68Z"/>
      <path class="cls-1" d="m560.72,229.17c-.36-10.47-.62-20.16-.8-29.07-.18-8.92-.27-17.72-.27-26.4s.09-17.39.27-26.13c.18-8.74.5-18.1.98-28.09h30.15c-.48,5.35-.89,10.76-1.25,16.23,4.04-5.11,8.86-9.36,14.45-12.75,5.59-3.39,12.19-5.08,19.8-5.08s13.65,1.25,18.46,3.75c4.82,2.5,8.62,5.95,11.42,10.35,2.79,4.4,4.82,9.43,6.07,15.07,1.25,5.65,2.05,11.71,2.41,18.19.36,6.48.53,12.99.53,19.53,0,7.14-.12,13.97-.36,20.51-.24,6.54-.48,12.01-.71,16.41-.24,4.4-.42,7.01-.53,7.85h-29.97c.24-4.88.47-10.08.71-15.61.24-5.53.47-11,.71-16.41.24-5.41.36-10.32.36-14.72,0-25.33-4.1-37.99-12.31-37.99-6.78,0-12.93,2.94-18.46,8.83-5.53,5.89-10.14,13.29-13.82,22.21v3.57c0,5.71.03,11.62.09,17.75.06,6.13.18,11.95.36,17.48s.33,10.32.45,14.36l-28.72.18Z"/>
      <path class="cls-1" d="m679.16,228.81c-.36-7.37-.6-15.25-.71-23.63-.12-8.38-.18-16.8-.18-25.24,0-11.06.12-21.82.36-32.29.24-10.46.53-19.98.89-28.54l30.68-.18c-.48,5.47-.77,12.22-.89,20.25-.12,8.03-.18,16.44-.18,25.24s.06,17.24.18,25.69c.12,8.44.27,16.08.45,22.92.18,6.84.32,12.1.45,15.79h-31.04Zm.71-127.71c0-1.07-.03-2.17-.09-3.3-.06-1.13-.09-2.41-.09-3.84,0-3.8.12-7.85.36-12.13.24-4.28.47-7.91.71-10.88l31.75.53c-.36,4.04-.74,8.62-1.16,13.73-.42,5.11-.68,10.41-.8,15.87h-30.68Z"/>
      <path class="cls-1" d="m727.49,230.24c-.12-1.78-.24-4.73-.36-8.83-.12-4.1-.24-9.01-.36-14.72s-.18-11.86-.18-18.46v-19.89c0-7.37.03-14.39.09-21.05.06-6.66.12-12.42.18-17.3.06-4.87.09-8.38.09-10.52l30.15-.53c-.24,3.33-.42,7.37-.53,12.13,3.09-4.16,6.66-7.43,10.7-9.81,4.04-2.38,8.68-3.57,13.91-3.57,6.3,0,11.51,1.84,15.61,5.53,4.1,3.69,7.46,8.5,10.08,14.45,8.56-13.32,19.09-19.98,31.57-19.98,7.01,0,12.81,1.52,17.39,4.55,4.58,3.03,8.17,7.11,10.79,12.22,2.61,5.11,4.55,10.88,5.8,17.3,1.25,6.42,2.05,13.02,2.41,19.8.36,6.78.53,13.32.53,19.62,0,7.49-.12,14.33-.36,20.51-.24,6.18-.3,12.07-.18,17.66h-30.86v-10.79c0-4.34.03-8.74.09-13.2.06-4.46.09-8.32.09-11.59v-5.8c0-7.14-.18-13.85-.54-20.16-.36-6.3-1.25-11.42-2.68-15.34-1.43-3.92-3.74-5.89-6.95-5.89s-5.83,1.49-8.21,4.46c-2.38,2.97-4.49,6.84-6.33,11.59-1.84,4.76-3.42,9.81-4.73,15.16.24,4.64.41,9.25.53,13.82.12,4.58.18,9.01.18,13.29,0,4.88-.03,9.13-.09,12.75-.06,3.63-.09,7.52-.09,11.68h-29.97c0-9.63-.06-18.13-.18-25.51-.12-7.37-.36-14.51-.71-21.4-.6-12.37-1.87-21.43-3.84-27.2-1.96-5.77-4.67-8.65-8.11-8.65-3.81,0-7.02,2.29-9.63,6.87-2.62,4.58-4.76,10.14-6.42,16.68.12,9.51.36,19.44.71,29.79s.83,20.33,1.43,29.97l-31.04.36Z"/>
      <path class="cls-1" d="m935.65,230.41c-8.92,0-17.01-2.29-24.26-6.87-7.26-4.58-12.99-10.76-17.21-18.55-4.22-7.79-6.33-16.5-6.33-26.13,0-9.03,1.67-17.21,5-24.53,3.33-7.31,7.87-13.58,13.64-18.82,5.77-5.23,12.34-9.25,19.71-12.04,7.37-2.79,15.1-4.19,23.19-4.19,6.78,0,13.44.95,19.98,2.85.47-2.5.89-4.99,1.25-7.49l30.5,5.17c-.83,2.26-1.67,5.65-2.5,10.17-.83,4.52-1.52,9.57-2.05,15.16-.53,5.59-.98,11.18-1.34,16.77-.36,5.59-.53,10.64-.53,15.16,0,3.69.27,7.28.8,10.79.53,3.51,1.69,6.36,3.48,8.56,1.78,2.2,4.52,3.3,8.21,3.3h2.5l-4.46,31.04c-7.85,0-14.33-1.34-19.44-4.01-5.11-2.68-9.22-6.27-12.31-10.79-5.11,5.71-10.94,9.54-17.48,11.5-6.54,1.96-13.32,2.94-20.33,2.94Zm-18.55-47.98c.59,5.71,2.94,10.26,7.05,13.65,4.1,3.39,9.3,5.08,15.61,5.08s11.12-1.63,15.16-4.91c4.04-3.27,7.37-7.76,9.99-13.47-.12-1.9-.18-3.86-.18-5.89,0-4.16.12-8.44.36-12.84.24-4.4.53-8.74.89-13.02-4.99-1.9-10.23-2.85-15.7-2.85-6.42,0-12.16,1.28-17.21,3.83-5.06,2.56-9.01,6.1-11.86,10.61-2.85,4.52-4.28,9.75-4.28,15.7v2.14c0,.71.06,1.37.18,1.96Z"/>
      <path class="cls-1" d="m1055.7,230.41c-6.54,0-11.92-1.4-16.14-4.19-4.22-2.8-7.55-6.63-9.99-11.51-2.44-4.87-4.22-10.46-5.35-16.77-1.13-6.3-1.85-13.05-2.14-20.25-.3-7.19-.45-14.42-.45-21.67,0-6.3.18-13.23.53-20.78.36-7.55.8-15.22,1.34-23.01.53-7.79,1.13-15.13,1.78-22.03.65-6.9,1.28-12.9,1.87-18.02l32.28.36c-.95,6.06-1.84,12.93-2.67,20.6-.83,7.67-1.52,15.43-2.05,23.28s-.95,15.1-1.25,21.76c-.3,6.66-.45,11.95-.45,15.87,0,10.82.21,19.33.62,25.51.41,6.18,1.07,10.55,1.96,13.11.89,2.56,2.11,3.83,3.66,3.83,2.02,0,4.22-1.28,6.6-3.83,2.38-2.56,4.7-5.44,6.96-8.65l15.16,30.15c-3.69,4.04-8.09,7.76-13.2,11.15-5.11,3.39-11.48,5.08-19.09,5.08Z"/>
    </g>
    <g>
      <path class="cls-1" d="m1164.75,230.41c-9.99,0-19.26-1.49-27.83-4.46-8.56-2.97-16.26-6.93-23.1-11.86-6.84-4.93-12.82-10.26-17.93-15.97l17.84-28.36c1.54,4.04,4.13,7.91,7.76,11.59,3.63,3.69,7.88,6.96,12.75,9.81,4.87,2.85,10.02,5.11,15.43,6.78,5.41,1.67,10.73,2.5,15.96,2.5,7.85,0,14.09-1.28,18.73-3.84,4.64-2.56,6.96-5.98,6.96-10.26,0-3.33-1.04-6.09-3.12-8.29-2.08-2.2-4.46-3.98-7.14-5.35-2.68-1.37-4.97-2.59-6.87-3.66-1.43-.71-4.01-1.81-7.76-3.3-3.75-1.49-7.94-3.12-12.58-4.91-4.64-1.78-9.04-3.48-13.2-5.08-4.16-1.6-7.43-2.94-9.81-4.01-17.72-7.97-26.58-20.27-26.58-36.92,0-5.35,1.04-10.61,3.12-15.79,2.08-5.17,5.26-9.9,9.54-14.18s9.75-7.67,16.41-10.17c6.66-2.5,14.63-3.75,23.9-3.75,10.11,0,19.09,1.1,26.93,3.3s14.77,4.97,20.78,8.29c6,3.33,11.15,6.84,15.43,10.52l-16.41,27.47c-13.2-13.08-28.12-19.62-44.77-19.62-7.02,0-12.34.74-15.96,2.23-3.63,1.49-6.06,3.15-7.31,4.99-1.25,1.85-1.87,3.36-1.87,4.55,0,2.02.74,4.04,2.23,6.06,1.49,2.02,4.84,4.16,10.08,6.42,2.14.95,5.02,2.11,8.65,3.48,3.63,1.37,7.67,2.89,12.13,4.55,4.46,1.67,8.86,3.42,13.2,5.26,4.34,1.85,8.29,3.72,11.86,5.62,4.28,2.38,8.68,5.29,13.2,8.74,4.52,3.45,8.35,7.7,11.51,12.75,3.15,5.06,4.73,11.21,4.73,18.46,0,4.4-.83,9.25-2.5,14.54-1.67,5.29-4.58,10.38-8.74,15.25-4.16,4.87-9.93,8.86-17.3,11.95-7.37,3.09-16.83,4.64-28.36,4.64Z"/>
      <path class="cls-1" d="m1290.86,230.77c-9.52,0-17.81-1.55-24.89-4.64-7.08-3.09-12.93-7.34-17.57-12.75-4.64-5.41-8.09-11.62-10.35-18.64-2.26-7.01-3.39-14.39-3.39-22.12s1.4-15.13,4.19-21.85c2.79-6.72,6.66-12.57,11.59-17.57,4.93-4.99,10.73-8.89,17.39-11.68,6.66-2.79,13.91-4.19,21.76-4.19s15.81,1.43,22.83,4.28c7.01,2.85,13.14,6.84,18.37,11.95,5.23,5.11,9.3,11.12,12.22,18.01,2.91,6.9,4.37,14.39,4.37,22.48,0,17.96-4.94,31.9-14.8,41.83-9.87,9.93-23.79,14.89-41.74,14.89Zm-.18-28.9c8.68,0,15.31-2.44,19.89-7.31,4.58-4.88,6.86-11.89,6.86-21.05,0-8.21-2.5-14.81-7.49-19.8s-11.53-7.49-19.62-7.49c-4.88,0-9.34,1.28-13.38,3.84-4.04,2.56-7.29,5.95-9.72,10.17-2.44,4.22-3.66,8.89-3.66,14,0,4.52.92,8.92,2.76,13.2,1.84,4.28,4.79,7.76,8.83,10.43,4.04,2.68,9.22,4.01,15.52,4.01Z"/>
      <path class="cls-1" d="m1360.6,230.06c.47-9.87.83-19.74,1.07-29.61.24-9.87.36-19.62.36-29.25-.12-8.8-.27-17.51-.45-26.13-.18-8.62-.51-16.97-.98-25.06l29.97-.89c.12,4.4.29,8.92.53,13.56,3.8-4.76,8.23-8.59,13.29-11.5,5.05-2.91,10.85-4.37,17.39-4.37,2.5,0,5.71.36,9.63,1.07,3.92.71,7.91,2.08,11.95,4.1l-3.39,30.15c-2.97-1.78-6.15-3.06-9.54-3.84-3.39-.77-6.21-1.16-8.47-1.16-7.61,0-14.07,3.42-19.35,10.26-5.29,6.84-8.89,16.32-10.79,28.45,0,8.33-.09,16.26-.27,23.81-.18,7.55-.51,14.36-.98,20.42h-29.97Z"/>
      <path class="cls-1" d="m1490.27,230.77c-7.61,0-13.89-1.34-18.82-4.01-4.94-2.67-8.86-6.33-11.77-10.97-2.92-4.64-5.06-9.84-6.42-15.61-1.37-5.77-2.26-11.77-2.67-18.02-.42-6.24-.62-12.28-.62-18.1,0-6.66.21-13.44.62-20.33.42-6.9.86-14.45,1.34-22.65l32.64-1.96c-.36,2.5-.89,6.24-1.6,11.24s-1.37,10.7-1.96,17.12c-.6,6.42-.89,13.14-.89,20.16,0,11.53,1.01,20.07,3.03,25.6,2.02,5.53,5.05,8.29,9.1,8.29,8.08,0,14.03-5.89,17.84-17.66,3.81-11.77,5.71-30.38,5.71-55.83v-8.21l15.16-.36,18.37-.36c-1.67,11.18-2.92,21.47-3.75,30.86-.83,9.4-1.37,17.27-1.6,23.64-.24,6.36-.36,10.61-.36,12.75,0,5.47.47,9.36,1.43,11.68.95,2.32,2.61,3.48,5,3.48,1.19,0,2.5-.24,3.92-.71,1.43-.47,3.09-1.31,4.99-2.5l-1.25,30.68c-4.52.72-8.44,1.07-11.77,1.07-5.71,0-10.37-1.07-14-3.21-3.63-2.14-6.51-4.99-8.65-8.56-3.69,3.92-8.23,6.98-13.64,9.19-5.41,2.2-11.86,3.3-19.35,3.3Z"/>
      <path class="cls-1" d="m1573.57,230.06c-.12-1.78-.24-4.73-.36-8.83-.12-4.1-.24-9.01-.36-14.72-.12-5.71-.18-11.86-.18-18.46v-19.89c0-7.37.03-14.39.09-21.05.06-6.66.12-12.42.18-17.3.06-4.88.09-8.38.09-10.52l30.15-.53c-.24,3.33-.42,7.37-.53,12.13,3.09-4.16,6.66-7.43,10.7-9.81,4.04-2.38,8.68-3.57,13.91-3.57,6.3,0,11.5,1.85,15.61,5.53,4.1,3.69,7.46,8.5,10.08,14.45,8.56-13.32,19.09-19.98,31.57-19.98,7.02,0,12.81,1.52,17.39,4.55,4.58,3.03,8.18,7.11,10.79,12.22,2.62,5.11,4.55,10.88,5.8,17.3,1.25,6.42,2.05,13.02,2.41,19.8.36,6.78.53,13.32.53,19.62,0,7.49-.12,14.33-.36,20.51-.24,6.18-.3,12.07-.18,17.66h-30.86v-10.79c0-4.34.03-8.74.09-13.2.06-4.46.09-8.32.09-11.59v-5.8c0-7.13-.18-13.85-.53-20.15-.36-6.3-1.25-11.42-2.67-15.34-1.43-3.92-3.75-5.89-6.96-5.89s-5.83,1.49-8.2,4.46c-2.38,2.97-4.49,6.84-6.33,11.6-1.85,4.76-3.42,9.81-4.73,15.16.24,4.64.42,9.25.53,13.82.12,4.58.18,9.01.18,13.29,0,4.88-.03,9.13-.09,12.75-.06,3.63-.09,7.52-.09,11.68h-29.97c0-9.63-.06-18.13-.18-25.51-.12-7.37-.36-14.51-.72-21.41-.6-12.37-1.87-21.43-3.83-27.2-1.96-5.77-4.67-8.65-8.12-8.65-3.81,0-7.02,2.29-9.63,6.87-2.62,4.58-4.76,10.14-6.42,16.68.12,9.51.36,19.44.71,29.79.36,10.35.83,20.33,1.43,29.97l-31.04.36Z"/>
      <path class="cls-1" d="m1804.56,230.41c-9.99,0-19.26-1.49-27.83-4.46-8.56-2.97-16.26-6.93-23.1-11.86-6.84-4.93-12.82-10.26-17.93-15.97l17.84-28.36c1.54,4.04,4.13,7.91,7.76,11.59,3.63,3.69,7.88,6.96,12.75,9.81,4.87,2.85,10.02,5.11,15.43,6.78,5.41,1.67,10.73,2.5,15.97,2.5,7.85,0,14.09-1.28,18.73-3.84,4.64-2.56,6.96-5.98,6.96-10.26,0-3.33-1.04-6.09-3.12-8.29-2.08-2.2-4.46-3.98-7.14-5.35-2.67-1.37-4.97-2.59-6.87-3.66-1.43-.71-4.01-1.81-7.76-3.3-3.75-1.49-7.94-3.12-12.58-4.91-4.64-1.78-9.04-3.48-13.2-5.08-4.16-1.6-7.43-2.94-9.81-4.01-17.72-7.97-26.58-20.27-26.58-36.92,0-5.35,1.04-10.61,3.12-15.79,2.08-5.17,5.26-9.9,9.54-14.18s9.75-7.67,16.41-10.17c6.66-2.5,14.63-3.75,23.9-3.75,10.11,0,19.09,1.1,26.93,3.3s14.77,4.97,20.78,8.29c6,3.33,11.15,6.84,15.43,10.52l-16.41,27.47c-13.2-13.08-28.12-19.62-44.77-19.62-7.02,0-12.34.74-15.96,2.23-3.63,1.49-6.06,3.15-7.31,4.99-1.25,1.85-1.87,3.36-1.87,4.55,0,2.02.74,4.04,2.23,6.06,1.49,2.02,4.84,4.16,10.08,6.42,2.14.95,5.02,2.11,8.65,3.48,3.63,1.37,7.67,2.89,12.13,4.55,4.46,1.67,8.86,3.42,13.2,5.26,4.34,1.85,8.3,3.72,11.86,5.62,4.28,2.38,8.68,5.29,13.2,8.74,4.52,3.45,8.35,7.7,11.51,12.75,3.15,5.06,4.73,11.21,4.73,18.46,0,4.4-.83,9.25-2.5,14.54-1.67,5.29-4.58,10.38-8.74,15.25-4.16,4.87-9.93,8.86-17.3,11.95-7.37,3.09-16.83,4.64-28.36,4.64Z"/>
      <path class="cls-1" d="m1876.44,228.63c-.36-7.37-.6-15.25-.71-23.63-.12-8.38-.18-16.8-.18-25.24,0-11.06.12-21.82.36-32.28.24-10.46.53-19.98.89-28.54l30.68-.18c-.48,5.47-.77,12.22-.89,20.25-.12,8.03-.18,16.44-.18,25.24s.06,17.24.18,25.69c.12,8.44.27,16.08.45,22.92.18,6.84.32,12.1.45,15.79h-31.04Zm.71-127.71c0-1.07-.03-2.17-.09-3.3-.06-1.13-.09-2.41-.09-3.84,0-3.8.12-7.85.36-12.13.24-4.28.47-7.91.71-10.88l31.75.53c-.36,4.04-.74,8.62-1.16,13.74-.42,5.11-.68,10.41-.8,15.87h-30.68Z"/>
      <path class="cls-1" d="m1925.14,228.45c0-7.25.03-16.56.09-27.91.06-11.35.18-23.99.36-37.9.18-13.91.47-28.54.89-43.88.42-15.34.92-30.68,1.52-46.02l30.32-.18c-.47,6.78-.95,15.05-1.43,24.79-.48,9.75-.89,20.22-1.25,31.39,8.21-7.61,17.6-11.42,28.18-11.42,7.25,0,13.29,1.31,18.1,3.92,4.82,2.62,8.71,6.04,11.68,10.26,2.97,4.22,5.23,8.83,6.78,13.82s2.62,9.9,3.21,14.72c.59,4.82.89,9.07.89,12.75,0,7.85-.06,15.64-.18,23.37-.12,7.73-.21,14.51-.27,20.33-.06,5.83-.09,9.93-.09,12.31l-31.22.18c.47-4.64.8-9.99.98-16.05.18-6.06.29-12.34.36-18.82.06-6.48.09-12.64.09-18.46,0-19.26-4.52-28.9-13.56-28.9-2.74,0-5.77.71-9.1,2.14s-6.51,3.69-9.54,6.78c-3.03,3.09-5.44,7.2-7.23,12.31-.12,7.85-.18,15.46-.18,22.83,0,6.78.09,13.11.27,19,.18,5.89.33,11.8.45,17.75l-30.15.89Z"/>
    </g>
  </g>
</svg>