<?xml version="1.0" encoding="UTF-8"?>
<svg id="Layer_1" data-name="Layer 1" xmlns="http://www.w3.org/2000/svg" viewBox="0 0 844.79 271.63">
  <defs>
    <style>
      .cls-1, .cls-2 {
        stroke-width: 0px;
      }

      .cls-2 {
        fill: #7624f0;
      }
    </style>
  </defs>
  <g>
    <path class="cls-2" d="m71.9,29.91v241.72h201.32V29.91H71.9Z"/>
    <path class="cls-1" d="m111.75,133.16c-7.58-3.21-15.81-6.22-24.69-9.03-8.89-2.82-17.9-5.39-27.03-7.72-9.13-2.33-17.97-4.39-26.51-6.19-8.55-1.8-16.32-3.28-23.31-4.44l4.81-23.31c7.09.87,15.03,2.19,23.82,3.93,8.79,1.75,17.92,3.79,27.39,6.12,9.47,2.33,18.74,4.95,27.83,7.87,9.08,2.91,17.46,5.97,25.13,9.18l-7.43,23.6Zm3.21-86.25c-5.73-3.01-12.24-5.83-19.52-8.45-7.28-2.62-14.91-4.98-22.87-7.07-7.97-2.09-15.86-3.88-23.67-5.39-7.82-1.5-15.13-2.6-21.93-3.28L32.2,0c7.48.58,15.27,1.58,23.38,2.99,8.11,1.41,16.19,3.13,24.26,5.17,8.06,2.04,15.81,4.37,23.24,6.99,7.43,2.62,14.2,5.49,20.32,8.6l-8.45,23.16Zm-19.23,41.52c-5.73-3.79-12.38-7.5-19.96-11.14s-15.37-7.07-23.38-10.27-15.61-5.92-22.8-8.16l10.64-20.4c11.65,3.21,23.33,7.19,35.04,11.95,11.7,4.76,22.12,10.2,31.25,16.32l-10.78,21.71Z"/>
    <path class="cls-1" d="m139.56,114.22l-.44-25.06c7.38,1.55,15.56,2.77,24.55,3.64,8.98.87,18.23,1.31,27.75,1.31,8.84,0,17.65-.39,26.44-1.17,8.79-.78,17.19-1.94,25.2-3.5,8.01-1.55,15.27-3.5,21.78-5.83l1.31,25.79c-9.32,3.4-20.23,5.9-32.71,7.5-12.48,1.6-25.23,2.4-38.24,2.4-10,0-19.79-.44-29.36-1.31-9.57-.87-18.33-2.14-26.3-3.79Zm16.17-67.31l-4.81-24.04c3.69-1.36,8.16-2.55,13.4-3.57,5.24-1.02,10.93-1.89,17.05-2.62,6.12-.73,12.38-1.29,18.79-1.68,6.41-.39,12.62-.58,18.65-.58s12.21.22,17.7.66c5.49.44,10.03,1.14,13.62,2.11l-1.46,24.62c-3.89-.97-8.3-1.65-13.26-2.04-4.95-.39-10.15-.58-15.59-.58-7.67,0-15.52.34-23.53,1.02-8.01.68-15.57,1.6-22.65,2.77-7.09,1.17-13.06,2.48-17.92,3.93Z"/>
    <path class="cls-1" d="m38.02,212.1c-3.3-1.84-7.26-3.69-11.87-5.54-4.61-1.84-9.25-3.5-13.91-4.95S3.5,199.08,0,198.4l6.85-22.44c4.17.87,8.64,2.06,13.4,3.57,4.76,1.51,9.47,3.18,14.13,5.03,4.66,1.85,8.94,3.74,12.82,5.68l-9.18,21.85Zm86.98-8.16c-4.18,6.41-9.16,12.6-14.93,18.58-5.78,5.97-12,11.53-18.65,16.68-6.65,5.15-13.45,9.64-20.4,13.48-6.95,3.83-13.72,6.82-20.32,8.96-6.61,2.14-12.72,3.21-18.36,3.21-7.67,0-14.35-2.38-20.03-7.14-5.68-4.76-9.69-12.72-12.02-23.89l20.54-9.47c1.36,5.83,3.25,10,5.68,12.53,2.43,2.53,5.63,3.79,9.62,3.79,2.52,0,6-.8,10.42-2.4,4.42-1.6,9.35-3.96,14.79-7.07,5.44-3.11,11.02-6.94,16.75-11.51,5.73-4.56,11.27-9.81,16.61-15.73,5.34-5.92,10.1-12.43,14.28-19.52l16.03,19.52Zm-71.39-22.73c-4.28-3.98-9.79-7.91-16.54-11.8-6.75-3.88-13.77-7.43-21.05-10.64l8.01-21.27c5.15,1.85,10.32,4.1,15.52,6.77,5.19,2.67,10.08,5.46,14.64,8.38,4.56,2.91,8.3,5.68,11.22,8.3l-11.8,20.25Z"/>
    <path class="cls-1" d="m141.82,244.24l-3.64-20.98c2.72.2,5.49.36,8.3.51,2.82.15,5.78.22,8.89.22,7.48,0,14.98-.39,22.51-1.17,7.53-.78,15.13-1.89,22.8-3.35.19-2.33.39-4.61.58-6.85-14.18-3.3-28.36-4.95-42.54-4.95-5.15,0-10.93.29-17.34.87l2.48-22.14c5.73-.58,11.41-.87,17.05-.87,6.99,0,13.99.39,20.98,1.17,6.99.78,13.74,1.94,20.25,3.5,0-4.66-.36-8.25-1.09-10.78-.73-2.52-2.36-4.27-4.88-5.24-2.53-.97-6.56-1.46-12.09-1.46-4.37,0-9.16.36-14.35,1.09-5.2.73-10.51,1.65-15.95,2.77-5.44,1.12-10.69,2.31-15.73,3.57l-4.08-21.42c10.1-2.62,19.5-4.44,28.19-5.46,8.69-1.02,16.29-1.53,22.8-1.53,8.06,0,14.66.58,19.81,1.75,5.15,1.17,9.18,3.23,12.09,6.19,2.91,2.96,4.93,7.12,6.05,12.46,1.12,5.34,1.68,12.14,1.68,20.4,0,6.41-.34,14.18-1.02,23.31-.68,9.13-2.04,20.1-4.08,32.93l-22.73-3.93c.19-.97.39-1.94.58-2.91-6.7,1.17-13.53,2.06-20.47,2.7-6.95.63-13.33.95-19.16.95-6.51,0-11.8-.44-15.88-1.31Z"/>
    <path class="cls-1" d="m273.22,172.22c-6.09.65-11.85,1.37-17.26,2.16-6.95,1.02-12.99,2.21-18.14,3.57l4.95,25.2c4.76-1.17,10.49-2.23,17.19-3.21,4.19-.61,8.63-1.16,13.26-1.67v-26.05Z"/>
  </g>
  <g>
    <path class="cls-1" d="m336.8,135.09c-.2-6.45-.29-12.63-.29-18.56,0-10.68.33-20.35.98-29.01.65-8.66,1.59-16.02,2.83-22.08.59-2.8,1.42-5.5,2.49-8.11,1.07-2.6,2.6-4.74,4.59-6.4,1.99-1.66,4.61-2.49,7.86-2.49s5.89.83,8.11,2.49c2.21,1.66,4.02,3.66,5.42,6.01,1.4,2.34,2.43,4.59,3.08,6.74,1.69,5.08,3.13,10.16,4.3,15.24,1.17,5.08,2.21,9.93,3.13,14.56.65-3.39,1.4-6.95,2.25-10.7.85-3.74,1.69-7.29,2.54-10.65.85-3.35,1.63-6.14,2.34-8.35,3.32-10.22,8.43-15.34,15.34-15.34,3.84,0,7.1,1.38,9.77,4.15,2.67,2.77,4.62,6.76,5.86,11.97.59,2.34,1.19,5.76,1.81,10.26.62,4.49,1.2,9.82,1.76,15.97.55,6.15,1.04,12.94,1.47,20.37.42,7.42.76,15.31,1.03,23.64l-17.19-.39c0-3.45-.08-7.46-.24-12.02-.16-4.56-.39-9.3-.68-14.21-.29-4.92-.62-9.72-.98-14.41-.36-4.69-.72-8.92-1.07-12.7-.36-3.78-.7-6.79-1.03-9.04-.33-2.25-.62-3.37-.88-3.37-.07,0-.41,1.16-1.03,3.47-.62,2.31-1.37,5.39-2.25,9.23-.88,3.84-1.84,8.08-2.88,12.7-1.04,4.62-2.07,9.27-3.08,13.92-1.01,4.66-1.91,8.96-2.69,12.9-.78,3.94-1.4,7.15-1.86,9.62l-15.34.39c-.78-3.65-1.71-7.67-2.78-12.06-1.07-4.4-2.18-8.89-3.32-13.48-1.14-4.59-2.26-9.02-3.37-13.29-1.11-4.27-2.13-8.09-3.08-11.48-.95-3.39-1.71-6.07-2.3-8.06-.59-1.99-.94-2.98-1.07-2.98-.26,0-.54,1.42-.83,4.25-.29,2.83-.57,6.66-.83,11.48-.26,4.82-.47,10.26-.64,16.31-.16,6.06-.24,12.31-.24,18.76,0,3.06.02,5.86.05,8.4.03,2.54.08,4.62.15,6.25l-17.19.1Z"/>
    <path class="cls-1" d="m432.05,134.8c-.2-4.04-.33-8.35-.39-12.94-.07-4.59-.1-9.2-.1-13.82,0-6.06.06-11.95.2-17.68.13-5.73.29-10.94.49-15.63l16.8-.1c-.26,3-.42,6.69-.49,11.09-.07,4.4-.1,9-.1,13.82s.03,9.44.1,14.07c.06,4.62.15,8.81.24,12.55.1,3.74.18,6.63.24,8.65h-17Zm.39-69.95c0-.59-.02-1.19-.05-1.81-.03-.62-.05-1.32-.05-2.1,0-2.08.06-4.3.2-6.64.13-2.34.26-4.33.39-5.96l17.39.29c-.2,2.21-.41,4.72-.63,7.52-.23,2.8-.38,5.7-.44,8.69h-16.8Z"/>
    <path class="cls-1" d="m459.31,134.99c-.2-5.73-.34-11.04-.44-15.92-.1-4.88-.15-9.7-.15-14.46s.05-9.52.15-14.31c.1-4.79.28-9.92.54-15.39h16.51c-.26,2.93-.49,5.9-.68,8.89,2.21-2.8,4.85-5.13,7.91-6.98,3.06-1.86,6.67-2.78,10.84-2.78s7.47.68,10.11,2.05c2.64,1.37,4.72,3.26,6.25,5.67,1.53,2.41,2.64,5.16,3.32,8.25.68,3.09,1.12,6.42,1.32,9.96.2,3.55.29,7.12.29,10.7,0,3.91-.07,7.65-.2,11.23-.13,3.58-.26,6.58-.39,8.99-.13,2.41-.23,3.84-.29,4.3h-16.41c.13-2.67.26-5.52.39-8.55.13-3.03.26-6.02.39-8.99.13-2.96.2-5.65.2-8.06,0-13.87-2.25-20.81-6.74-20.81-3.71,0-7.08,1.61-10.11,4.84-3.03,3.22-5.55,7.28-7.57,12.16v1.95c0,3.13.02,6.37.05,9.72.03,3.35.1,6.54.2,9.57s.18,5.65.24,7.86l-15.73.1Z"/>
    <path class="cls-1" d="m524.17,134.8c-.2-4.04-.33-8.35-.39-12.94-.07-4.59-.1-9.2-.1-13.82,0-6.06.06-11.95.2-17.68.13-5.73.29-10.94.49-15.63l16.8-.1c-.26,3-.42,6.69-.49,11.09-.07,4.4-.1,9-.1,13.82s.03,9.44.1,14.07c.06,4.62.15,8.81.24,12.55.1,3.74.18,6.63.24,8.65h-17Zm.39-69.95c0-.59-.02-1.19-.05-1.81-.03-.62-.05-1.32-.05-2.1,0-2.08.06-4.3.2-6.64.13-2.34.26-4.33.39-5.96l17.39.29c-.2,2.21-.41,4.72-.63,7.52-.23,2.8-.38,5.7-.44,8.69h-16.8Z"/>
    <path class="cls-1" d="m550.64,135.58c-.06-.98-.13-2.59-.2-4.84s-.13-4.93-.2-8.06-.1-6.5-.1-10.11v-10.89c0-4.04.02-7.88.05-11.53.03-3.65.06-6.8.1-9.48.03-2.67.05-4.59.05-5.76l16.51-.29c-.13,1.82-.23,4.04-.29,6.64,1.69-2.28,3.65-4.07,5.86-5.37,2.21-1.3,4.75-1.95,7.62-1.95,3.45,0,6.3,1.01,8.55,3.03,2.25,2.02,4.09,4.66,5.52,7.91,4.69-7.29,10.45-10.94,17.29-10.94,3.84,0,7.02.83,9.53,2.49,2.51,1.66,4.48,3.89,5.91,6.69,1.43,2.8,2.49,5.96,3.17,9.48.68,3.52,1.12,7.13,1.32,10.84.2,3.71.29,7.29.29,10.75,0,4.1-.07,7.85-.2,11.23-.13,3.39-.16,6.61-.1,9.67h-16.9v-5.91c0-2.38.01-4.79.05-7.23.03-2.44.05-4.56.05-6.35v-3.17c0-3.91-.1-7.59-.29-11.04-.2-3.45-.68-6.25-1.47-8.4-.78-2.15-2.05-3.22-3.81-3.22s-3.19.81-4.49,2.44c-1.3,1.63-2.46,3.75-3.47,6.35-1.01,2.61-1.87,5.37-2.59,8.3.13,2.54.23,5.06.29,7.57.06,2.51.1,4.93.1,7.28,0,2.67-.02,5-.05,6.98-.03,1.99-.05,4.12-.05,6.4h-16.41c0-5.28-.03-9.93-.1-13.97-.07-4.04-.2-7.94-.39-11.72-.33-6.77-1.03-11.74-2.1-14.9-1.08-3.16-2.56-4.74-4.44-4.74-2.09,0-3.84,1.25-5.28,3.76-1.43,2.51-2.61,5.55-3.52,9.13.06,5.21.2,10.65.39,16.31s.46,11.14.78,16.41l-17,.2Z"/>
    <path class="cls-1" d="m664.65,135.68c-4.88,0-9.31-1.25-13.29-3.76-3.97-2.51-7.12-5.89-9.43-10.16-2.31-4.27-3.47-9.04-3.47-14.31,0-4.95.91-9.43,2.74-13.43,1.82-4.01,4.31-7.44,7.47-10.31,3.16-2.87,6.76-5.06,10.79-6.59,4.04-1.53,8.27-2.3,12.7-2.3,3.71,0,7.36.52,10.94,1.56.26-1.37.49-2.74.68-4.1l16.71,2.83c-.46,1.24-.91,3.09-1.37,5.57-.46,2.48-.83,5.24-1.12,8.3-.29,3.06-.54,6.12-.73,9.18-.2,3.06-.29,5.83-.29,8.3,0,2.02.15,3.99.44,5.91.29,1.92.93,3.48,1.9,4.69.98,1.21,2.47,1.81,4.49,1.81h1.37l-2.44,17c-4.3,0-7.85-.73-10.65-2.2-2.8-1.47-5.05-3.44-6.74-5.91-2.8,3.13-5.99,5.23-9.57,6.3-3.58,1.07-7.29,1.61-11.14,1.61Zm-10.16-26.28c.33,3.13,1.61,5.62,3.86,7.47,2.25,1.86,5.09,2.78,8.55,2.78s6.09-.89,8.3-2.69c2.21-1.79,4.04-4.25,5.47-7.38-.07-1.04-.1-2.12-.1-3.22,0-2.28.06-4.62.2-7.03.13-2.41.29-4.79.49-7.13-2.74-1.04-5.6-1.56-8.6-1.56-3.52,0-6.66.7-9.43,2.1-2.77,1.4-4.93,3.34-6.5,5.81-1.56,2.48-2.34,5.34-2.34,8.6v1.17c0,.39.03.75.1,1.07Z"/>
    <path class="cls-1" d="m730.39,135.68c-3.58,0-6.53-.77-8.84-2.3-2.31-1.53-4.14-3.63-5.47-6.3-1.34-2.67-2.31-5.73-2.93-9.18-.62-3.45-1.01-7.15-1.17-11.09-.16-3.94-.24-7.9-.24-11.87,0-3.45.1-7.24.29-11.38.2-4.13.44-8.34.73-12.6.29-4.27.62-8.29.98-12.06.36-3.78.7-7.07,1.03-9.87l17.68.2c-.52,3.32-1.01,7.08-1.46,11.28-.46,4.2-.83,8.45-1.12,12.75s-.52,8.27-.68,11.92c-.16,3.65-.24,6.54-.24,8.69,0,5.93.11,10.58.34,13.97.23,3.39.59,5.78,1.07,7.18.49,1.4,1.16,2.1,2,2.1,1.11,0,2.31-.7,3.62-2.1,1.3-1.4,2.57-2.98,3.81-4.74l8.3,16.51c-2.02,2.21-4.43,4.25-7.23,6.11-2.8,1.86-6.29,2.78-10.45,2.78Z"/>
    <path class="cls-1" d="m373.93,253c-5.47,0-10.55-.82-15.24-2.44-4.69-1.63-8.91-3.79-12.65-6.5-3.75-2.7-7.02-5.62-9.82-8.74l9.77-15.53c.85,2.21,2.26,4.33,4.25,6.35,1.99,2.02,4.31,3.81,6.98,5.37,2.67,1.56,5.49,2.8,8.45,3.71,2.96.91,5.88,1.37,8.74,1.37,4.3,0,7.72-.7,10.26-2.1,2.54-1.4,3.81-3.27,3.81-5.62,0-1.82-.57-3.34-1.71-4.54-1.14-1.21-2.44-2.18-3.91-2.93-1.47-.75-2.72-1.42-3.76-2-.78-.39-2.2-.99-4.25-1.81-2.05-.81-4.35-1.71-6.89-2.69-2.54-.98-4.95-1.9-7.23-2.78-2.28-.88-4.07-1.61-5.37-2.2-9.7-4.36-14.56-11.1-14.56-20.22,0-2.93.57-5.81,1.71-8.65,1.14-2.83,2.88-5.42,5.23-7.77s5.34-4.2,8.99-5.57c3.65-1.37,8.01-2.05,13.09-2.05,5.53,0,10.45.6,14.75,1.81s8.09,2.72,11.38,4.54c3.29,1.82,6.11,3.75,8.45,5.76l-8.99,15.04c-7.23-7.16-15.4-10.75-24.52-10.75-3.84,0-6.76.41-8.74,1.22-1.99.82-3.32,1.73-4.01,2.74-.68,1.01-1.03,1.84-1.03,2.49,0,1.11.41,2.21,1.22,3.32.81,1.11,2.65,2.28,5.52,3.52,1.17.52,2.75,1.16,4.74,1.91,1.99.75,4.2,1.58,6.64,2.49,2.44.91,4.85,1.87,7.23,2.88,2.38,1.01,4.54,2.04,6.5,3.08,2.34,1.3,4.75,2.9,7.23,4.79,2.47,1.89,4.57,4.22,6.3,6.98,1.72,2.77,2.59,6.14,2.59,10.11,0,2.41-.46,5.06-1.37,7.96-.91,2.9-2.51,5.68-4.79,8.35-2.28,2.67-5.44,4.85-9.48,6.54-4.04,1.69-9.22,2.54-15.53,2.54Z"/>
    <path class="cls-1" d="m442.99,253.2c-5.21,0-9.75-.85-13.63-2.54-3.88-1.69-7.08-4.02-9.62-6.99-2.54-2.96-4.43-6.36-5.67-10.21-1.24-3.84-1.86-7.88-1.86-12.11s.76-8.29,2.3-11.97c1.53-3.68,3.65-6.89,6.35-9.62,2.7-2.74,5.88-4.87,9.52-6.4,3.65-1.53,7.62-2.3,11.92-2.3s8.66.78,12.5,2.34c3.84,1.56,7.2,3.75,10.06,6.54,2.87,2.8,5.09,6.09,6.69,9.87,1.59,3.78,2.39,7.88,2.39,12.31,0,9.83-2.7,17.47-8.11,22.91-5.41,5.44-13.03,8.16-22.86,8.16Zm-.1-15.83c4.75,0,8.38-1.33,10.89-4,2.51-2.67,3.76-6.51,3.76-11.53,0-4.49-1.37-8.11-4.1-10.84s-6.32-4.1-10.75-4.1c-2.67,0-5.11.7-7.33,2.1-2.21,1.4-3.99,3.26-5.32,5.57-1.34,2.31-2,4.87-2,7.67,0,2.48.5,4.88,1.51,7.23,1.01,2.34,2.62,4.25,4.84,5.71,2.21,1.47,5.05,2.2,8.5,2.2Z"/>
    <path class="cls-1" d="m481.19,252.81c.26-5.41.46-10.81.59-16.22.13-5.41.2-10.75.2-16.02-.07-4.82-.15-9.59-.24-14.31-.1-4.72-.28-9.3-.54-13.73l16.41-.49c.06,2.41.16,4.88.29,7.42,2.08-2.6,4.51-4.71,7.28-6.3,2.77-1.6,5.94-2.39,9.53-2.39,1.37,0,3.12.2,5.28.59,2.15.39,4.33,1.14,6.54,2.25l-1.86,16.51c-1.63-.98-3.37-1.68-5.23-2.1-1.86-.42-3.4-.63-4.64-.63-4.17,0-7.7,1.87-10.6,5.62-2.9,3.75-4.87,8.94-5.91,15.58,0,4.56-.05,8.91-.15,13.04-.1,4.13-.28,7.86-.54,11.19h-16.41Z"/>
    <path class="cls-1" d="m552.21,253.2c-4.17,0-7.6-.73-10.31-2.2-2.7-1.46-4.85-3.47-6.45-6.01-1.6-2.54-2.77-5.39-3.52-8.55-.75-3.16-1.24-6.45-1.46-9.87-.23-3.42-.34-6.72-.34-9.92,0-3.65.11-7.36.34-11.14.23-3.78.47-7.91.73-12.41l17.88-1.08c-.2,1.37-.49,3.42-.88,6.15s-.75,5.86-1.07,9.38c-.33,3.52-.49,7.2-.49,11.04,0,6.32.55,10.99,1.66,14.02,1.11,3.03,2.77,4.54,4.98,4.54,4.43,0,7.68-3.22,9.77-9.67,2.08-6.45,3.13-16.64,3.13-30.58v-4.49l8.3-.2,10.06-.2c-.91,6.12-1.6,11.76-2.05,16.9-.46,5.15-.75,9.46-.88,12.94-.13,3.48-.2,5.81-.2,6.98,0,3,.26,5.13.78,6.4.52,1.27,1.43,1.91,2.74,1.91.65,0,1.37-.13,2.15-.39.78-.26,1.69-.72,2.74-1.37l-.68,16.8c-2.48.39-4.62.59-6.45.59-3.12,0-5.68-.59-7.67-1.76-1.99-1.17-3.57-2.74-4.74-4.69-2.02,2.15-4.51,3.83-7.47,5.03-2.96,1.2-6.5,1.81-10.6,1.81Z"/>
    <path class="cls-1" d="m597.83,252.81c-.07-.98-.13-2.59-.2-4.84-.07-2.25-.13-4.93-.2-8.06-.07-3.13-.1-6.5-.1-10.11v-10.89c0-4.04.01-7.88.05-11.53.03-3.65.06-6.8.1-9.48.03-2.67.05-4.59.05-5.76l16.51-.29c-.13,1.82-.23,4.04-.29,6.64,1.69-2.28,3.65-4.07,5.86-5.37,2.21-1.3,4.75-1.95,7.62-1.95,3.45,0,6.3,1.01,8.55,3.03,2.25,2.02,4.09,4.66,5.52,7.91,4.69-7.29,10.45-10.94,17.29-10.94,3.84,0,7.02.83,9.52,2.49,2.51,1.66,4.48,3.89,5.91,6.69,1.43,2.8,2.49,5.96,3.18,9.48.68,3.52,1.12,7.13,1.32,10.84.2,3.71.29,7.29.29,10.75,0,4.1-.07,7.85-.2,11.23-.13,3.39-.16,6.61-.1,9.67h-16.9v-5.91c0-2.38.02-4.79.05-7.23.03-2.44.05-4.56.05-6.35v-3.18c0-3.91-.1-7.59-.29-11.04-.2-3.45-.68-6.25-1.46-8.4-.78-2.15-2.05-3.22-3.81-3.22s-3.19.82-4.49,2.44c-1.3,1.63-2.46,3.75-3.47,6.35-1.01,2.61-1.87,5.37-2.59,8.3.13,2.54.23,5.06.29,7.57.06,2.51.1,4.93.1,7.28,0,2.67-.02,5-.05,6.98-.03,1.99-.05,4.12-.05,6.4h-16.41c0-5.28-.03-9.93-.1-13.97-.07-4.04-.2-7.95-.39-11.72-.33-6.77-1.03-11.74-2.1-14.9-1.07-3.16-2.56-4.74-4.45-4.74-2.08,0-3.84,1.25-5.28,3.76-1.43,2.51-2.61,5.55-3.52,9.13.06,5.21.2,10.65.39,16.31s.45,11.14.78,16.41l-17,.2Z"/>
    <path class="cls-1" d="m724.34,253c-5.47,0-10.55-.82-15.24-2.44-4.69-1.63-8.91-3.79-12.65-6.5-3.75-2.7-7.02-5.62-9.82-8.74l9.77-15.53c.85,2.21,2.26,4.33,4.25,6.35,1.99,2.02,4.31,3.81,6.99,5.37,2.67,1.56,5.49,2.8,8.45,3.71,2.96.91,5.88,1.37,8.74,1.37,4.3,0,7.72-.7,10.26-2.1,2.54-1.4,3.81-3.27,3.81-5.62,0-1.82-.57-3.34-1.71-4.54-1.14-1.21-2.44-2.18-3.91-2.93-1.46-.75-2.72-1.42-3.76-2-.78-.39-2.2-.99-4.25-1.81-2.05-.81-4.35-1.71-6.89-2.69-2.54-.98-4.95-1.9-7.23-2.78-2.28-.88-4.07-1.61-5.37-2.2-9.7-4.36-14.55-11.1-14.55-20.22,0-2.93.57-5.81,1.71-8.65,1.14-2.83,2.88-5.42,5.23-7.77s5.34-4.2,8.99-5.57c3.65-1.37,8.01-2.05,13.09-2.05,5.54,0,10.45.6,14.75,1.81s8.09,2.72,11.38,4.54c3.29,1.82,6.11,3.75,8.45,5.76l-8.99,15.04c-7.23-7.16-15.4-10.75-24.52-10.75-3.84,0-6.76.41-8.74,1.22-1.99.82-3.32,1.73-4,2.74-.68,1.01-1.03,1.84-1.03,2.49,0,1.11.41,2.21,1.22,3.32.81,1.11,2.65,2.28,5.52,3.52,1.17.52,2.75,1.16,4.74,1.91,1.99.75,4.2,1.58,6.64,2.49,2.44.91,4.85,1.87,7.23,2.88,2.38,1.01,4.54,2.04,6.5,3.08,2.35,1.3,4.75,2.9,7.23,4.79,2.47,1.89,4.58,4.22,6.3,6.98,1.72,2.77,2.59,6.14,2.59,10.11,0,2.41-.46,5.06-1.37,7.96-.91,2.9-2.51,5.68-4.79,8.35-2.28,2.67-5.44,4.85-9.48,6.54-4.04,1.69-9.22,2.54-15.53,2.54Z"/>
    <path class="cls-1" d="m763.7,252.03c-.2-4.04-.33-8.35-.39-12.94-.07-4.59-.1-9.2-.1-13.82,0-6.06.06-11.95.2-17.68.13-5.73.29-10.94.49-15.63l16.8-.1c-.26,3-.42,6.69-.49,11.09-.07,4.4-.1,9-.1,13.82s.03,9.44.1,14.07c.06,4.62.15,8.81.24,12.55s.18,6.63.24,8.65h-17Zm.39-69.95c0-.59-.02-1.19-.05-1.81-.03-.62-.05-1.32-.05-2.1,0-2.08.06-4.3.2-6.64.13-2.34.26-4.33.39-5.96l17.39.29c-.2,2.21-.41,4.72-.63,7.52-.23,2.8-.38,5.7-.44,8.69h-16.8Z"/>
    <path class="cls-1" d="m790.37,251.93c0-3.97.02-9.07.05-15.29.03-6.22.1-13.14.2-20.76.1-7.62.26-15.63.49-24.03s.5-16.8.83-25.2l16.61-.1c-.26,3.71-.52,8.24-.78,13.58-.26,5.34-.49,11.07-.68,17.19,4.49-4.17,9.64-6.25,15.44-6.25,3.97,0,7.28.72,9.92,2.15,2.64,1.43,4.77,3.31,6.4,5.62,1.63,2.31,2.87,4.83,3.71,7.57s1.43,5.42,1.76,8.06c.32,2.64.49,4.97.49,6.99,0,4.3-.03,8.56-.1,12.8-.07,4.23-.12,7.95-.15,11.14-.03,3.19-.05,5.44-.05,6.74l-17.1.1c.26-2.54.44-5.47.54-8.79.1-3.32.16-6.76.2-10.31.03-3.55.05-6.92.05-10.11,0-10.55-2.48-15.83-7.42-15.83-1.5,0-3.16.39-4.98,1.17s-3.57,2.02-5.23,3.71c-1.66,1.69-2.98,3.94-3.96,6.74-.07,4.3-.1,8.47-.1,12.5,0,3.71.05,7.18.15,10.4s.18,6.46.24,9.72l-16.51.49Z"/>
  </g>
</svg>