<?xml version="1.0" encoding="UTF-8"?>
<svg id="Layer_1" data-name="Layer 1" xmlns="http://www.w3.org/2000/svg" xmlns:xlink="http://www.w3.org/1999/xlink" viewBox="0 0 96 96">
  <defs>
    <style>
      .cls-1, .cls-2, .cls-3, .cls-4 {
        stroke-width: 0px;
      }

      .cls-2 {
        fill: none;
      }

      .cls-3 {
        fill: #7624f0;
      }

      .cls-4 {
        fill: #fff;
      }

      .cls-5 {
        clip-path: url(#clippath);
      }
    </style>
    <clipPath id="clippath">
      <rect class="cls-2" width="96" height="96"/>
    </clipPath>
  </defs>
  <rect class="cls-4" width="96" height="96" rx="13.87" ry="13.87"/>
  <g class="cls-5">
    <g>
      <path class="cls-3" d="m29.44,17.63v69.31h57.73V17.63H29.44Z"/>
      <path class="cls-1" d="m40.87,47.24c-2.17-.92-4.53-1.78-7.08-2.59-2.55-.81-5.13-1.55-7.75-2.21-2.62-.67-5.15-1.26-7.6-1.78-2.45-.51-4.68-.94-6.68-1.27l1.38-6.68c2.03.25,4.31.63,6.83,1.13,2.52.5,5.14,1.09,7.85,1.75,2.72.67,5.37,1.42,7.98,2.26,2.6.84,5.01,1.71,7.21,2.63l-2.13,6.77Zm.92-24.73c-1.64-.86-3.51-1.67-5.6-2.42-2.09-.75-4.28-1.43-6.56-2.03-2.28-.6-4.55-1.11-6.79-1.55-2.24-.43-4.34-.74-6.29-.94l1.5-6.52c2.14.17,4.38.45,6.7.86,2.32.4,4.64.9,6.96,1.48,2.31.58,4.53,1.25,6.66,2.01,2.13.75,4.07,1.57,5.83,2.46l-2.42,6.64Zm-5.51,11.91c-1.64-1.09-3.55-2.15-5.72-3.2s-4.41-2.03-6.7-2.94-4.48-1.7-6.54-2.34l3.05-5.85c3.34.92,6.69,2.06,10.05,3.43,3.36,1.36,6.34,2.92,8.96,4.68l-3.09,6.22Z"/>
      <path class="cls-1" d="m48.84,41.81l-.13-7.18c2.12.45,4.46.79,7.04,1.04,2.58.25,5.23.38,7.96.38,2.53,0,5.06-.11,7.58-.33,2.52-.22,4.93-.56,7.23-1,2.3-.45,4.38-1,6.24-1.67l.38,7.39c-2.67.98-5.8,1.69-9.38,2.15-3.58.46-7.23.69-10.97.69-2.87,0-5.67-.13-8.42-.38-2.74-.25-5.26-.61-7.54-1.09Zm4.64-19.3l-1.38-6.89c1.06-.39,2.34-.73,3.84-1.02,1.5-.29,3.13-.54,4.89-.75,1.75-.21,3.55-.37,5.39-.48,1.84-.11,3.62-.17,5.35-.17s3.5.06,5.08.19c1.57.13,2.88.33,3.91.61l-.42,7.06c-1.11-.28-2.38-.47-3.8-.58-1.42-.11-2.91-.17-4.47-.17-2.2,0-4.45.1-6.75.29-2.3.2-4.46.46-6.5.79-2.03.33-3.75.71-5.14,1.13Z"/>
      <path class="cls-1" d="m19.73,69.87c-.95-.53-2.08-1.06-3.4-1.59-1.32-.53-2.65-1-3.99-1.42s-2.51-.72-3.51-.92l1.96-6.43c1.2.25,2.48.59,3.84,1.02,1.36.43,2.72.91,4.05,1.44,1.34.53,2.56,1.07,3.68,1.63l-2.63,6.27Zm24.94-2.34c-1.2,1.84-2.63,3.61-4.28,5.33-1.66,1.71-3.44,3.31-5.35,4.78-1.91,1.48-3.86,2.76-5.85,3.86-1.99,1.1-3.93,1.96-5.83,2.57-1.89.61-3.65.92-5.26.92-2.2,0-4.11-.68-5.74-2.05-1.63-1.36-2.78-3.65-3.45-6.85l5.89-2.72c.39,1.67.93,2.87,1.63,3.59.7.72,1.61,1.09,2.76,1.09.72,0,1.72-.23,2.99-.69,1.27-.46,2.68-1.13,4.24-2.03,1.56-.89,3.16-1.99,4.8-3.3,1.64-1.31,3.23-2.81,4.76-4.51,1.53-1.7,2.9-3.56,4.09-5.6l4.59,5.6Zm-20.47-6.52c-1.23-1.14-2.81-2.27-4.74-3.38-1.94-1.11-3.95-2.13-6.04-3.05l2.3-6.1c1.48.53,2.96,1.18,4.45,1.94,1.49.77,2.89,1.57,4.2,2.4,1.31.84,2.38,1.63,3.22,2.38l-3.38,5.81Z"/>
      <path class="cls-1" d="m49.49,79.09l-1.04-6.02c.78.06,1.57.1,2.38.15.81.04,1.66.06,2.55.06,2.14,0,4.3-.11,6.45-.33,2.16-.22,4.34-.54,6.54-.96.06-.67.11-1.32.17-1.96-4.07-.95-8.13-1.42-12.2-1.42-1.48,0-3.13.08-4.97.25l.71-6.35c1.64-.17,3.27-.25,4.89-.25,2.01,0,4.01.11,6.02.33,2.01.22,3.94.56,5.81,1,0-1.34-.1-2.37-.31-3.09-.21-.72-.68-1.23-1.4-1.5-.72-.28-1.88-.42-3.47-.42-1.25,0-2.63.1-4.11.31-1.49.21-3.01.47-4.57.79-1.56.32-3.06.66-4.51,1.02l-1.17-6.14c2.9-.75,5.59-1.27,8.08-1.57,2.49-.29,4.67-.44,6.54-.44,2.31,0,4.2.17,5.68.5,1.48.33,2.63.93,3.47,1.78.84.85,1.41,2.04,1.73,3.57.32,1.53.48,3.48.48,5.85,0,1.84-.1,4.07-.29,6.68-.2,2.62-.58,5.76-1.17,9.44l-6.52-1.13c.06-.28.11-.56.17-.84-1.92.33-3.88.59-5.87.77-1.99.18-3.82.27-5.49.27-1.87,0-3.38-.13-4.55-.38Z"/>
      <path class="cls-1" d="m87.17,58.44c-1.75.19-3.4.39-4.95.62-1.99.29-3.72.63-5.2,1.02l1.42,7.23c1.36-.33,3.01-.64,4.93-.92,1.2-.17,2.47-.33,3.8-.48v-7.47Z"/>
    </g>
  </g>
</svg>